<mxfile host="app.diagrams.net" modified="2023-06-15T08:10:22.862Z" agent="Mozilla/5.0 (Windows NT 10.0; Win64; x64) AppleWebKit/537.36 (KHTML, like Gecko) Chrome/114.0.0.0 Safari/537.36" etag="Mc4t5bcLTKhd0uXASY7j" version="21.1.2" type="device">
  <diagram name="Page-1" id="74b105a0-9070-1c63-61bc-23e55f88626e">
    <mxGraphModel dx="3187" dy="1782" grid="1" gridSize="10" guides="1" tooltips="1" connect="1" arrows="1" fold="1" page="1" pageScale="1.5" pageWidth="1169" pageHeight="826" background="none" math="0" shadow="0">
      <root>
        <mxCell id="0" style=";html=1;" />
        <mxCell id="1" style=";html=1;" parent="0" />
        <mxCell id="10b056a9c633e61c-30" value="Acer Overview" style="text;strokeColor=none;fillColor=none;html=1;fontSize=24;fontStyle=1;verticalAlign=middle;align=center;" parent="1" vertex="1">
          <mxGeometry x="80" y="40" width="1590" height="40" as="geometry" />
        </mxCell>
        <mxCell id="lG5jULaxI2dD-dfpQ8qb-3" value="" style="edgeStyle=orthogonalEdgeStyle;rounded=0;orthogonalLoop=1;jettySize=auto;html=1;" edge="1" parent="1" source="lG5jULaxI2dD-dfpQ8qb-1" target="lG5jULaxI2dD-dfpQ8qb-2">
          <mxGeometry relative="1" as="geometry" />
        </mxCell>
        <mxCell id="lG5jULaxI2dD-dfpQ8qb-5" value="" style="edgeStyle=orthogonalEdgeStyle;rounded=0;orthogonalLoop=1;jettySize=auto;html=1;entryX=0;entryY=0.5;entryDx=0;entryDy=0;" edge="1" parent="1" source="lG5jULaxI2dD-dfpQ8qb-1" target="lG5jULaxI2dD-dfpQ8qb-4">
          <mxGeometry relative="1" as="geometry">
            <Array as="points">
              <mxPoint x="480" y="630" />
              <mxPoint x="480" y="1060" />
            </Array>
          </mxGeometry>
        </mxCell>
        <mxCell id="lG5jULaxI2dD-dfpQ8qb-7" style="edgeStyle=orthogonalEdgeStyle;rounded=0;orthogonalLoop=1;jettySize=auto;html=1;entryX=0;entryY=0.5;entryDx=0;entryDy=0;" edge="1" parent="1" source="lG5jULaxI2dD-dfpQ8qb-1" target="lG5jULaxI2dD-dfpQ8qb-6">
          <mxGeometry relative="1" as="geometry">
            <Array as="points">
              <mxPoint x="480" y="630" />
              <mxPoint x="480" y="530" />
            </Array>
          </mxGeometry>
        </mxCell>
        <mxCell id="lG5jULaxI2dD-dfpQ8qb-11" style="edgeStyle=orthogonalEdgeStyle;rounded=0;orthogonalLoop=1;jettySize=auto;html=1;entryX=0;entryY=0.5;entryDx=0;entryDy=0;" edge="1" parent="1" source="lG5jULaxI2dD-dfpQ8qb-1" target="lG5jULaxI2dD-dfpQ8qb-10">
          <mxGeometry relative="1" as="geometry">
            <Array as="points">
              <mxPoint x="480" y="630" />
              <mxPoint x="480" y="750" />
            </Array>
          </mxGeometry>
        </mxCell>
        <mxCell id="lG5jULaxI2dD-dfpQ8qb-44" style="edgeStyle=orthogonalEdgeStyle;rounded=0;orthogonalLoop=1;jettySize=auto;html=1;exitX=0.5;exitY=0;exitDx=0;exitDy=0;entryX=0.5;entryY=1;entryDx=0;entryDy=0;dashed=1;" edge="1" parent="1" source="lG5jULaxI2dD-dfpQ8qb-1" target="lG5jULaxI2dD-dfpQ8qb-36">
          <mxGeometry relative="1" as="geometry" />
        </mxCell>
        <mxCell id="lG5jULaxI2dD-dfpQ8qb-1" value="Core" style="rounded=0;whiteSpace=wrap;html=1;" vertex="1" parent="1">
          <mxGeometry x="310" y="600" width="120" height="60" as="geometry" />
        </mxCell>
        <mxCell id="lG5jULaxI2dD-dfpQ8qb-13" value="" style="edgeStyle=orthogonalEdgeStyle;rounded=0;orthogonalLoop=1;jettySize=auto;html=1;" edge="1" parent="1" source="lG5jULaxI2dD-dfpQ8qb-2" target="lG5jULaxI2dD-dfpQ8qb-12">
          <mxGeometry relative="1" as="geometry">
            <Array as="points">
              <mxPoint x="880" y="630" />
              <mxPoint x="880" y="510" />
            </Array>
          </mxGeometry>
        </mxCell>
        <mxCell id="lG5jULaxI2dD-dfpQ8qb-16" style="edgeStyle=orthogonalEdgeStyle;rounded=0;orthogonalLoop=1;jettySize=auto;html=1;entryX=0;entryY=0.5;entryDx=0;entryDy=0;" edge="1" parent="1" source="lG5jULaxI2dD-dfpQ8qb-2" target="lG5jULaxI2dD-dfpQ8qb-15">
          <mxGeometry relative="1" as="geometry" />
        </mxCell>
        <mxCell id="lG5jULaxI2dD-dfpQ8qb-18" style="edgeStyle=orthogonalEdgeStyle;rounded=0;orthogonalLoop=1;jettySize=auto;html=1;entryX=0.5;entryY=1;entryDx=0;entryDy=0;dashed=1;" edge="1" parent="1" source="lG5jULaxI2dD-dfpQ8qb-2" target="lG5jULaxI2dD-dfpQ8qb-17">
          <mxGeometry relative="1" as="geometry">
            <Array as="points">
              <mxPoint x="790" y="630" />
            </Array>
          </mxGeometry>
        </mxCell>
        <mxCell id="lG5jULaxI2dD-dfpQ8qb-22" style="edgeStyle=orthogonalEdgeStyle;rounded=0;orthogonalLoop=1;jettySize=auto;html=1;entryX=0;entryY=0.5;entryDx=0;entryDy=0;" edge="1" parent="1" source="lG5jULaxI2dD-dfpQ8qb-2" target="lG5jULaxI2dD-dfpQ8qb-21">
          <mxGeometry relative="1" as="geometry">
            <Array as="points">
              <mxPoint x="880" y="630" />
              <mxPoint x="880" y="910" />
            </Array>
          </mxGeometry>
        </mxCell>
        <mxCell id="lG5jULaxI2dD-dfpQ8qb-29" style="edgeStyle=orthogonalEdgeStyle;rounded=0;orthogonalLoop=1;jettySize=auto;html=1;entryX=0;entryY=0.5;entryDx=0;entryDy=0;" edge="1" parent="1" source="lG5jULaxI2dD-dfpQ8qb-2" target="lG5jULaxI2dD-dfpQ8qb-26">
          <mxGeometry relative="1" as="geometry">
            <Array as="points">
              <mxPoint x="880" y="630" />
              <mxPoint x="880" y="750" />
            </Array>
          </mxGeometry>
        </mxCell>
        <mxCell id="lG5jULaxI2dD-dfpQ8qb-2" value="Scene" style="rounded=0;whiteSpace=wrap;html=1;" vertex="1" parent="1">
          <mxGeometry x="560" y="600" width="120" height="60" as="geometry" />
        </mxCell>
        <mxCell id="lG5jULaxI2dD-dfpQ8qb-40" style="edgeStyle=orthogonalEdgeStyle;rounded=0;orthogonalLoop=1;jettySize=auto;html=1;entryX=0.5;entryY=1;entryDx=0;entryDy=0;dashed=1;" edge="1" parent="1" source="lG5jULaxI2dD-dfpQ8qb-4" target="lG5jULaxI2dD-dfpQ8qb-39">
          <mxGeometry relative="1" as="geometry">
            <Array as="points" />
          </mxGeometry>
        </mxCell>
        <mxCell id="lG5jULaxI2dD-dfpQ8qb-4" value="ImGuiLayer" style="whiteSpace=wrap;html=1;rounded=0;" vertex="1" parent="1">
          <mxGeometry x="560" y="1030" width="120" height="60" as="geometry" />
        </mxCell>
        <mxCell id="lG5jULaxI2dD-dfpQ8qb-38" value="" style="edgeStyle=orthogonalEdgeStyle;rounded=0;orthogonalLoop=1;jettySize=auto;html=1;dashed=1;" edge="1" parent="1" source="lG5jULaxI2dD-dfpQ8qb-6" target="lG5jULaxI2dD-dfpQ8qb-37">
          <mxGeometry relative="1" as="geometry" />
        </mxCell>
        <mxCell id="lG5jULaxI2dD-dfpQ8qb-6" value="SceneSerializer" style="rounded=0;whiteSpace=wrap;html=1;" vertex="1" parent="1">
          <mxGeometry x="560" y="500" width="120" height="60" as="geometry" />
        </mxCell>
        <mxCell id="lG5jULaxI2dD-dfpQ8qb-9" value="" style="edgeStyle=orthogonalEdgeStyle;rounded=0;orthogonalLoop=1;jettySize=auto;html=1;" edge="1" parent="1" source="lG5jULaxI2dD-dfpQ8qb-8" target="lG5jULaxI2dD-dfpQ8qb-1">
          <mxGeometry relative="1" as="geometry" />
        </mxCell>
        <mxCell id="lG5jULaxI2dD-dfpQ8qb-8" value="main" style="rounded=0;whiteSpace=wrap;html=1;" vertex="1" parent="1">
          <mxGeometry x="120" y="600" width="120" height="60" as="geometry" />
        </mxCell>
        <mxCell id="lG5jULaxI2dD-dfpQ8qb-10" value="eventManager" style="rounded=0;whiteSpace=wrap;html=1;" vertex="1" parent="1">
          <mxGeometry x="560" y="720" width="120" height="60" as="geometry" />
        </mxCell>
        <mxCell id="lG5jULaxI2dD-dfpQ8qb-12" value="Renderer" style="whiteSpace=wrap;html=1;rounded=0;" vertex="1" parent="1">
          <mxGeometry x="1033" y="480" width="120" height="60" as="geometry" />
        </mxCell>
        <mxCell id="lG5jULaxI2dD-dfpQ8qb-15" value="DebugRenderer" style="whiteSpace=wrap;html=1;rounded=0;" vertex="1" parent="1">
          <mxGeometry x="1033" y="600" width="120" height="60" as="geometry" />
        </mxCell>
        <mxCell id="lG5jULaxI2dD-dfpQ8qb-17" value="Box2D" style="rounded=0;whiteSpace=wrap;html=1;fillColor=#bac8d3;strokeColor=#23445d;fontColor=#030303;" vertex="1" parent="1">
          <mxGeometry x="730" y="260" width="120" height="60" as="geometry" />
        </mxCell>
        <mxCell id="lG5jULaxI2dD-dfpQ8qb-25" value="" style="edgeStyle=orthogonalEdgeStyle;rounded=0;orthogonalLoop=1;jettySize=auto;html=1;" edge="1" parent="1" source="lG5jULaxI2dD-dfpQ8qb-21" target="lG5jULaxI2dD-dfpQ8qb-24">
          <mxGeometry relative="1" as="geometry" />
        </mxCell>
        <mxCell id="lG5jULaxI2dD-dfpQ8qb-21" value="World" style="rounded=0;whiteSpace=wrap;html=1;fillColor=#fa6800;fontColor=#000000;strokeColor=#C73500;" vertex="1" parent="1">
          <mxGeometry x="1030" y="880" width="120" height="60" as="geometry" />
        </mxCell>
        <mxCell id="lG5jULaxI2dD-dfpQ8qb-32" value="" style="edgeStyle=orthogonalEdgeStyle;rounded=0;orthogonalLoop=1;jettySize=auto;html=1;" edge="1" parent="1" source="lG5jULaxI2dD-dfpQ8qb-24" target="lG5jULaxI2dD-dfpQ8qb-31">
          <mxGeometry relative="1" as="geometry" />
        </mxCell>
        <mxCell id="lG5jULaxI2dD-dfpQ8qb-24" value="Chunk" style="whiteSpace=wrap;html=1;rounded=0;fillColor=#fa6800;fontColor=#000000;strokeColor=#C73500;" vertex="1" parent="1">
          <mxGeometry x="1233" y="880" width="120" height="60" as="geometry" />
        </mxCell>
        <mxCell id="lG5jULaxI2dD-dfpQ8qb-28" value="" style="edgeStyle=orthogonalEdgeStyle;rounded=0;orthogonalLoop=1;jettySize=auto;html=1;" edge="1" parent="1" source="lG5jULaxI2dD-dfpQ8qb-26" target="lG5jULaxI2dD-dfpQ8qb-27">
          <mxGeometry relative="1" as="geometry" />
        </mxCell>
        <mxCell id="lG5jULaxI2dD-dfpQ8qb-26" value="SpriteHandler" style="rounded=0;whiteSpace=wrap;html=1;" vertex="1" parent="1">
          <mxGeometry x="1030" y="720" width="120" height="60" as="geometry" />
        </mxCell>
        <mxCell id="lG5jULaxI2dD-dfpQ8qb-27" value="AnimationHandler" style="whiteSpace=wrap;html=1;rounded=0;" vertex="1" parent="1">
          <mxGeometry x="1230" y="720" width="120" height="60" as="geometry" />
        </mxCell>
        <mxCell id="lG5jULaxI2dD-dfpQ8qb-31" value="Cell" style="whiteSpace=wrap;html=1;rounded=0;fillColor=#fa6800;fontColor=#000000;strokeColor=#C73500;" vertex="1" parent="1">
          <mxGeometry x="1433" y="880" width="120" height="60" as="geometry" />
        </mxCell>
        <mxCell id="lG5jULaxI2dD-dfpQ8qb-36" value="spdlog" style="rounded=0;whiteSpace=wrap;html=1;fillColor=#bac8d3;strokeColor=#23445d;fontColor=#030303;" vertex="1" parent="1">
          <mxGeometry x="310" y="260" width="120" height="60" as="geometry" />
        </mxCell>
        <mxCell id="lG5jULaxI2dD-dfpQ8qb-37" value="yaml-cpp" style="rounded=0;whiteSpace=wrap;html=1;fillColor=#bac8d3;strokeColor=#23445d;fontColor=#030303;" vertex="1" parent="1">
          <mxGeometry x="560" y="260" width="120" height="60" as="geometry" />
        </mxCell>
        <mxCell id="lG5jULaxI2dD-dfpQ8qb-39" value="ImGui-SFML" style="rounded=0;whiteSpace=wrap;html=1;fillColor=#bac8d3;strokeColor=#23445d;fontColor=#030303;" vertex="1" parent="1">
          <mxGeometry x="560" y="860" width="120" height="60" as="geometry" />
        </mxCell>
        <mxCell id="lG5jULaxI2dD-dfpQ8qb-41" value="External Libraries" style="rounded=0;whiteSpace=wrap;html=1;fillColor=#bac8d3;strokeColor=#23445d;fontColor=#030303;" vertex="1" parent="1">
          <mxGeometry x="120" y="200" width="120" height="20" as="geometry" />
        </mxCell>
        <mxCell id="lG5jULaxI2dD-dfpQ8qb-42" value="Internal Classes" style="rounded=0;whiteSpace=wrap;html=1;" vertex="1" parent="1">
          <mxGeometry x="120" y="180" width="120" height="20" as="geometry" />
        </mxCell>
        <mxCell id="lG5jULaxI2dD-dfpQ8qb-43" value="Work in progress" style="rounded=0;whiteSpace=wrap;html=1;fillColor=#fa6800;strokeColor=#C73500;fontColor=#000000;" vertex="1" parent="1">
          <mxGeometry x="240" y="180" width="120" height="20" as="geometry" />
        </mxCell>
      </root>
    </mxGraphModel>
  </diagram>
</mxfile>
